<?xml version="1.0" encoding="utf-8"?>
<!-- Generator: Adobe Illustrator 26.0.2, SVG Export Plug-In . SVG Version: 6.00 Build 0)  -->
<svg version="1.1" id="Warstwa_1" xmlns="http://www.w3.org/2000/svg" xmlns:xlink="http://www.w3.org/1999/xlink" x="0px" y="0px"
	 viewBox="0 0 144.5 59.4" style="enable-background:new 0 0 144.5 59.4;" xml:space="preserve">
<style type="text/css">
	.st0{display:none;}
	.st1{fill:#FFFFFF;}
	.st2{fill:#2364AA;}
</style>
<g id="Warstwa_1_00000018955346612994130820000012182838076582444174_" class="st0">
	
		<image style="display:inline;overflow:visible;opacity:0.5;enable-background:new    ;" width="3167" height="1158" xlink:href="BCFE6495.jpeg"  transform="matrix(0.2398 0 0 0.2398 -78.8992 256.6695)">
	</image>
</g>
<g id="Warstwa_2_00000158022556417999184740000010577465098180518559_">
	<path class="st1" d="M39.2,6.5v12.9c0,0-9.1,0-13.6,0s-8.3,4.8-8.2,11.6c0,6.2,4.8,11.4,8.9,11.4s49.8,0,49.8,0
		c3.1,0,3-6.1-0.2-6.6L56,35.6c-6.2-1.1-9.4-4.8-10.5-9.6c0,0,27.2,0,32.7,0s11.4,6.9,11.4,14.2s-3.8,13.7-11,14.5H26.3
		C15.6,53.6,7.9,46.4,6.8,32.3C5.6,17.7,16.8,6.4,26.1,6.5C35.1,6.6,39.2,6.5,39.2,6.5z"/>
</g>
<g id="Warstwa_3">
	<path class="st2" d="M45.6,19.3h34c6.5-1.1,9.9-5.6,11-12.7H57.3C50.9,7.3,47,11.5,45.6,19.3z"/>
</g>
<g id="Warstwa_4">
	<path class="st2" d="M93.2,19.3h34c6.5-1.1,9.9-5.6,11-12.7H105C98.5,7.3,94.6,11.5,93.2,19.3z"/>
</g>
<g id="Warstwa_5">
	<path class="st1" d="M137.3,40.3c0,7.2-3.8,13.7-11,14.5H93.6V42.5c14,0,30.2,0,30.2,0c3.1,0,3-6.1-0.2-6.6l-19.9-0.2
		c-5.5-1-8.7-4.1-10.1-8.1c-0.2-0.5-0.3-1-0.4-1.5c0,0,0.1,0,0.4,0h32.3C131.5,26.1,137.3,33.1,137.3,40.3z"/>
	<path class="st1" d="M93.6,26.1v1.5c-0.2-0.5-0.3-1-0.4-1.5C93.2,26.1,93.3,26.1,93.6,26.1z"/>
</g>
</svg>
