<?xml version="1.0" encoding="utf-8"?>
<!-- Generator: Adobe Illustrator 26.1.0, SVG Export Plug-In . SVG Version: 6.00 Build 0)  -->
<svg version="1.1" id="Warstwa_2" xmlns="http://www.w3.org/2000/svg" xmlns:xlink="http://www.w3.org/1999/xlink" x="0px" y="0px"
	 viewBox="0 0 67.3 33.4" style="enable-background:new 0 0 67.3 33.4;" xml:space="preserve">
<path d="M49.1,15.2l-5.4,16.3H20.2c0.5-0.9,0.8-1.9,0.8-3c0-3.4-2.8-6.2-6.2-6.2c-3.4,0-6.2,2.8-6.2,6.2c0,1.1,0.3,2.1,0.8,3H0.7
	l8-15.7L0,0h37.6L49.1,15.2z"/>
<path d="M67.3,16.9v14.5H57.1c0.5-0.9,0.8-1.9,0.8-3c0-3.4-2.8-6.2-6.2-6.2c-0.8,0-1.5,0.1-2.2,0.4l-0.1-0.1l2.5-7.4L46,7.4h13.5
	L67.3,16.9z"/>
<circle cx="51.4" cy="28.7" r="4.7"/>
<circle cx="14.7" cy="28.7" r="4.7"/>
</svg>
